<svg width="70" height="70" viewBox="0 0 70 70" fill="none" xmlns="http://www.w3.org/2000/svg">
<path d="M52.1197 65.5187C44.3461 69.8762 34.914 71.2886 25.6485 68.7195C16.3385 66.1387 8.95438 60.0239 4.54446 52.2293C0.136481 44.4347 -1.30118 34.9584 1.28161 25.6486C1.77762 23.8642 2.40346 22.1495 3.14361 20.5123C4.88355 16.6682 10.5315 18.8247 8.60947 23.0969C8.01076 24.426 7.50699 25.8172 7.10591 27.2626C4.97071 34.9661 6.15845 42.8033 9.80496 49.2533C13.4553 55.6994 19.5626 60.7583 27.2645 62.8934C34.7086 64.9568 42.2807 63.9164 48.603 60.5529C52.7436 58.348 55.7003 63.5134 52.1197 65.5187ZM17.8808 4.48129C25.6543 0.123827 35.0864 -1.28862 44.3519 1.28052C53.662 3.86322 61.0461 9.97607 65.456 17.7707C69.862 25.5672 71.3016 35.0436 68.7188 44.3533C68.2228 46.1378 67.597 47.8525 66.8568 49.4877C65.2719 52.9869 59.7052 50.6483 61.3909 46.9031C61.9896 45.574 62.4934 44.1828 62.8945 42.7375C65.0297 35.0339 63.842 27.1967 60.1955 20.7467C56.5451 14.2987 50.4378 9.24176 42.736 7.10662C35.2918 5.04318 27.7217 6.08749 21.3975 9.44714C17.4041 11.5687 14.1664 6.56024 17.8808 4.48129Z" fill="#3267CF"/>
<path fill-rule="evenodd" clip-rule="evenodd" d="M27.3311 29.582C26.9287 28.0283 25.3984 26.7234 24.3982 26.0154L21.9876 24.4713L17.5747 21.6433L13.1598 18.8173L8.74495 15.9912C7.27461 15.0498 5.80233 14.1084 4.332 13.1651C0.182172 10.5074 2.60825 9.47229 6.35373 10.5113C8.24776 11.0336 10.1418 11.5579 12.0339 12.0783L20.2987 14.361L26.6424 16.1156C31.9937 19.9481 34.5822 26.1608 27.3311 29.582ZM42.671 40.5342C43.0754 42.0878 44.6037 43.3928 45.6039 44.1007L48.0145 45.6448L52.4275 48.4728L56.8423 51.297L61.2572 54.123C62.7275 55.0644 64.1998 56.0058 65.6701 56.9491C69.82 59.6068 67.3939 60.64 63.6484 59.603C61.7544 59.0806 59.8604 58.5564 57.9683 58.0359L49.7034 55.7532L43.3578 53.9968C38.0065 50.1681 35.4199 43.9572 42.671 40.5342ZM28.0102 31.901L30.8135 30.1234C30.8135 30.1234 40.7054 24.192 30.7477 17.2502L36.8283 18.9302L45.0912 21.2128C60.5742 25.4854 51.4891 32.0828 47.5986 34.6601C46.6738 35.2743 45.7277 35.8464 44.7952 36.4376L41.99 38.2152L39.1867 39.9927C39.1867 39.9927 29.2968 45.9242 39.2525 52.8659L33.1719 51.186L28.016 49.7624C12.059 45.3559 17.6791 38.7394 22.4016 35.4561C23.3109 34.8208 24.2705 34.2717 25.205 33.6785L28.0102 31.901ZM46.5016 44.6747C46.5016 44.6747 46.1224 44.47 45.6039 44.1007L46.5016 44.6747ZM23.4986 25.4414C23.4986 25.4414 23.8778 25.6461 24.3963 26.0173L23.4986 25.4414Z" fill="#3267CF"/>
</svg>
